<svg xmlns="http://www.w3.org/2000/svg" height="48" viewBox="0 -960 960 960" width="48"><path d="M610-60q-28 0-47.5-19T543-127v-54h133v55q0 29-19 47.5T610-60Zm-258 0q-28 0-47.5-19T285-127v-81H38q-29 0-42-24t3-48l142-202h-37q-17-9-20.5-30.5T94-554l219-311q14-18 38-18t37 18l221 311q12 20 9 41.5T597-482h-36l143 202q13 20 1.5 46T667-208H418v82q0 29-19 47.5T352-60Zm384-148q11-17 16-41.5T742-295L623-463q23-7 32.5-43T644-572L506-772l66-93q13-18 37-18t39 18l220 311q12 20 8.5 41.5T857-482h-36l141 202q16 24 2.5 48T923-208H736Z"/></svg>